<?xml version="1.0" encoding="UTF-8" standalone="no"?>
<!DOCTYPE svg PUBLIC "-//W3C//DTD SVG 1.1//EN"
 "http://www.w3.org/Graphics/SVG/1.1/DTD/svg11.dtd">
<!-- Generated by graphviz version 12.2.1 (20241206.2353)
 -->
<!-- Pages: 1 -->
<svg width="2061pt" height="716pt"
 viewBox="0.00 0.00 2061.01 716.24" xmlns="http://www.w3.org/2000/svg" xmlns:xlink="http://www.w3.org/1999/xlink">
<g id="graph0" class="graph" transform="scale(1 1) rotate(0) translate(36 680.24)">
<polygon fill="white" stroke="none" points="-36,36 -36,-680.24 2025.01,-680.24 2025.01,36 -36,36"/>
<!-- postgres -->
<g id="node1" class="node">
<title>postgres</title>
<polygon fill="none" stroke="black" points="281.13,-129.5 136.88,-129.5 136.88,-125.5 132.88,-125.5 132.88,-121.5 136.88,-121.5 136.88,-96.5 132.88,-96.5 132.88,-92.5 136.88,-92.5 136.88,-88.5 281.13,-88.5 281.13,-129.5"/>
<polyline fill="none" stroke="black" points="136.88,-125.5 140.88,-125.5 140.88,-121.5 136.88,-121.5"/>
<polyline fill="none" stroke="black" points="136.88,-96.5 140.88,-96.5 140.88,-92.5 136.88,-92.5"/>
<text text-anchor="middle" x="209" y="-112.2" font-family="Times New Roman,serif" font-size="14.00">postgres</text>
<text text-anchor="middle" x="209" y="-95.7" font-family="Times New Roman,serif" font-size="14.00">(build from &#39;./postgres&#39;)</text>
</g>
<!-- ./volumes/postgres_db -->
<g id="node2" class="node">
<title>./volumes/postgres_db</title>
<path fill="none" stroke="black" d="M278.5,-32.73C278.5,-34.53 247.35,-36 209,-36 170.66,-36 139.5,-34.53 139.5,-32.73 139.5,-32.73 139.5,-3.27 139.5,-3.27 139.5,-1.47 170.66,0 209,0 247.35,0 278.5,-1.47 278.5,-3.27 278.5,-3.27 278.5,-32.73 278.5,-32.73"/>
<path fill="none" stroke="black" d="M278.5,-32.73C278.5,-30.92 247.35,-29.45 209,-29.45 170.66,-29.45 139.5,-30.92 139.5,-32.73"/>
<text text-anchor="middle" x="209" y="-12.95" font-family="Times New Roman,serif" font-size="14.00">./volumes/postgres_db</text>
</g>
<!-- postgres&#45;&gt;./volumes/postgres_db -->
<g id="edge1" class="edge">
<title>postgres&#45;&gt;./volumes/postgres_db</title>
<path fill="none" stroke="black" stroke-dasharray="5,2" d="M209,-76.9C209,-67.43 209,-57.07 209,-47.76"/>
<polygon fill="black" stroke="black" points="205.51,-76.73 209,-86.73 212.51,-76.73 205.51,-76.73"/>
<polygon fill="black" stroke="black" points="212.51,-47.81 209,-37.81 205.51,-47.81 212.51,-47.81"/>
<text text-anchor="middle" x="271.25" y="-57.2" font-family="Times New Roman,serif" font-size="14.00">/var/lib/postgresql/data</text>
</g>
<!-- 0.0.0.05432 -->
<g id="node3" class="node">
<title>0.0.0.05432</title>
<ellipse fill="none" stroke="black" cx="58" cy="-240" rx="58" ry="58"/>
<text text-anchor="middle" x="58" y="-234.95" font-family="Times New Roman,serif" font-size="14.00">0.0.0.0:5432</text>
</g>
<!-- 0.0.0.05432&#45;&gt;postgres -->
<g id="edge2" class="edge">
<title>0.0.0.05432&#45;&gt;postgres</title>
<path fill="none" stroke="black" d="M101.68,-201.69C125.87,-181.02 155.4,-155.8 177.35,-137.04"/>
<polygon fill="black" stroke="black" points="179.48,-139.83 184.81,-130.67 174.94,-134.5 179.48,-139.83"/>
<text text-anchor="middle" x="177.89" y="-150.7" font-family="Times New Roman,serif" font-size="14.00">5432</text>
</g>
<!-- iceberg&#45;rest -->
<g id="node4" class="node">
<title>iceberg&#45;rest</title>
<polygon fill="none" stroke="black" points="567.38,-260.5 394.63,-260.5 394.63,-256.5 390.63,-256.5 390.63,-252.5 394.63,-252.5 394.63,-227.5 390.63,-227.5 390.63,-223.5 394.63,-223.5 394.63,-219.5 567.38,-219.5 567.38,-260.5"/>
<polyline fill="none" stroke="black" points="394.63,-256.5 398.63,-256.5 398.63,-252.5 394.63,-252.5"/>
<polyline fill="none" stroke="black" points="394.63,-227.5 398.63,-227.5 398.63,-223.5 394.63,-223.5"/>
<text text-anchor="middle" x="481" y="-243.2" font-family="Times New Roman,serif" font-size="14.00">iceberg&#45;rest</text>
<text text-anchor="middle" x="481" y="-226.7" font-family="Times New Roman,serif" font-size="14.00">(tabulario/iceberg&#45;rest:latest)</text>
</g>
<!-- iceberg&#45;rest&#45;&gt;postgres -->
<g id="edge4" class="edge">
<title>iceberg&#45;rest&#45;&gt;postgres</title>
<path fill="none" stroke="black" stroke-dasharray="1,5" d="M450.09,-219.07C431.59,-207.54 407.39,-193.15 385,-182 349.14,-164.14 307.72,-147.03 274.08,-133.97"/>
<polygon fill="black" stroke="black" points="275.45,-130.75 264.86,-130.43 272.94,-137.28 275.45,-130.75"/>
</g>
<!-- minio -->
<g id="node6" class="node">
<title>minio</title>
<polygon fill="none" stroke="black" points="764.75,-129.5 639.25,-129.5 639.25,-125.5 635.25,-125.5 635.25,-121.5 639.25,-121.5 639.25,-96.5 635.25,-96.5 635.25,-92.5 639.25,-92.5 639.25,-88.5 764.75,-88.5 764.75,-129.5"/>
<polyline fill="none" stroke="black" points="639.25,-125.5 643.25,-125.5 643.25,-121.5 639.25,-121.5"/>
<polyline fill="none" stroke="black" points="639.25,-96.5 643.25,-96.5 643.25,-92.5 639.25,-92.5"/>
<text text-anchor="middle" x="702" y="-112.2" font-family="Times New Roman,serif" font-size="14.00">minio</text>
<text text-anchor="middle" x="702" y="-95.7" font-family="Times New Roman,serif" font-size="14.00">(minio/minio:latest)</text>
</g>
<!-- iceberg&#45;rest&#45;&gt;minio -->
<g id="edge5" class="edge">
<title>iceberg&#45;rest&#45;&gt;minio</title>
<path fill="none" stroke="black" stroke-dasharray="1,5" d="M513.88,-219.05C532.12,-208.03 555.26,-194.15 576,-182 602.64,-166.4 632.63,-149.25 656.67,-135.59"/>
<polygon fill="black" stroke="black" points="658.3,-138.7 665.27,-130.72 654.84,-132.61 658.3,-138.7"/>
</g>
<!-- 0.0.0.08181 -->
<g id="node5" class="node">
<title>0.0.0.08181</title>
<ellipse fill="none" stroke="black" cx="484" cy="-408.51" rx="58" ry="58"/>
<text text-anchor="middle" x="484" y="-403.46" font-family="Times New Roman,serif" font-size="14.00">0.0.0.0:8181</text>
</g>
<!-- 0.0.0.08181&#45;&gt;iceberg&#45;rest -->
<g id="edge3" class="edge">
<title>0.0.0.08181&#45;&gt;iceberg&#45;rest</title>
<path fill="none" stroke="black" d="M482.97,-350.21C482.5,-324.02 481.96,-294.02 481.57,-272.1"/>
<polygon fill="black" stroke="black" points="485.07,-272.27 481.39,-262.34 478.07,-272.4 485.07,-272.27"/>
<text text-anchor="middle" x="496.09" y="-319.21" font-family="Times New Roman,serif" font-size="14.00">8181</text>
</g>
<!-- ./volumes/minio -->
<g id="node25" class="node">
<title>./volumes/minio</title>
<path fill="none" stroke="black" d="M755,-32.73C755,-34.53 731.25,-36 702,-36 672.76,-36 649,-34.53 649,-32.73 649,-32.73 649,-3.27 649,-3.27 649,-1.47 672.76,0 702,0 731.25,0 755,-1.47 755,-3.27 755,-3.27 755,-32.73 755,-32.73"/>
<path fill="none" stroke="black" d="M755,-32.73C755,-30.92 731.25,-29.45 702,-29.45 672.76,-29.45 649,-30.92 649,-32.73"/>
<text text-anchor="middle" x="702" y="-12.95" font-family="Times New Roman,serif" font-size="14.00">./volumes/minio</text>
</g>
<!-- minio&#45;&gt;./volumes/minio -->
<g id="edge22" class="edge">
<title>minio&#45;&gt;./volumes/minio</title>
<path fill="none" stroke="black" stroke-dasharray="5,2" d="M702,-76.9C702,-67.43 702,-57.07 702,-47.76"/>
<polygon fill="black" stroke="black" points="698.51,-76.73 702,-86.73 705.51,-76.73 698.51,-76.73"/>
<polygon fill="black" stroke="black" points="705.51,-47.81 702,-37.81 698.51,-47.81 705.51,-47.81"/>
<text text-anchor="middle" x="715.13" y="-57.2" font-family="Times New Roman,serif" font-size="14.00">/data</text>
</g>
<!-- trino -->
<g id="node7" class="node">
<title>trino</title>
<polygon fill="none" stroke="black" points="407.75,-429.01 282.25,-429.01 282.25,-425.01 278.25,-425.01 278.25,-421.01 282.25,-421.01 282.25,-396.01 278.25,-396.01 278.25,-392.01 282.25,-392.01 282.25,-388.01 407.75,-388.01 407.75,-429.01"/>
<polyline fill="none" stroke="black" points="282.25,-425.01 286.25,-425.01 286.25,-421.01 282.25,-421.01"/>
<polyline fill="none" stroke="black" points="282.25,-396.01 286.25,-396.01 286.25,-392.01 282.25,-392.01"/>
<text text-anchor="middle" x="345" y="-411.71" font-family="Times New Roman,serif" font-size="14.00">trino</text>
<text text-anchor="middle" x="345" y="-395.21" font-family="Times New Roman,serif" font-size="14.00">(trinodb/trino:latest)</text>
</g>
<!-- trino&#45;&gt;iceberg&#45;rest -->
<g id="edge8" class="edge">
<title>trino&#45;&gt;iceberg&#45;rest</title>
<path fill="none" stroke="black" stroke-dasharray="1,5" d="M361.14,-387.76C385,-358.55 429.84,-303.65 457.4,-269.91"/>
<polygon fill="black" stroke="black" points="460.11,-272.12 463.72,-262.17 454.69,-267.7 460.11,-272.12"/>
</g>
<!-- ./trino/etc -->
<g id="node8" class="node">
<title>./trino/etc</title>
<path fill="none" stroke="black" d="M376.25,-254.73C376.25,-256.54 360.9,-258 342,-258 323.11,-258 307.75,-256.54 307.75,-254.73 307.75,-254.73 307.75,-225.28 307.75,-225.28 307.75,-223.47 323.11,-222 342,-222 360.9,-222 376.25,-223.47 376.25,-225.28 376.25,-225.28 376.25,-254.73 376.25,-254.73"/>
<path fill="none" stroke="black" d="M376.25,-254.73C376.25,-252.93 360.9,-251.46 342,-251.46 323.11,-251.46 307.75,-252.93 307.75,-254.73"/>
<text text-anchor="middle" x="342" y="-234.95" font-family="Times New Roman,serif" font-size="14.00">./trino/etc</text>
</g>
<!-- trino&#45;&gt;./trino/etc -->
<g id="edge6" class="edge">
<title>trino&#45;&gt;./trino/etc</title>
<path fill="none" stroke="black" stroke-dasharray="5,2" d="M344.44,-376.34C343.89,-345.65 343.05,-299.18 342.52,-269.46"/>
<polygon fill="black" stroke="black" points="340.94,-376.31 344.62,-386.25 347.94,-376.19 340.94,-376.31"/>
<polygon fill="black" stroke="black" points="346.02,-269.67 342.34,-259.73 339.02,-269.79 346.02,-269.67"/>
<text text-anchor="middle" x="367.97" y="-319.21" font-family="Times New Roman,serif" font-size="14.00">/etc/trino</text>
</g>
<!-- 0.0.0.08060 -->
<g id="node9" class="node">
<title>0.0.0.08060</title>
<ellipse fill="none" stroke="black" cx="345" cy="-581.63" rx="58" ry="58"/>
<text text-anchor="middle" x="345" y="-576.58" font-family="Times New Roman,serif" font-size="14.00">0.0.0.0:8060</text>
</g>
<!-- 0.0.0.08060&#45;&gt;trino -->
<g id="edge7" class="edge">
<title>0.0.0.08060&#45;&gt;trino</title>
<path fill="none" stroke="black" d="M345,-523.18C345,-495.69 345,-463.85 345,-440.87"/>
<polygon fill="black" stroke="black" points="348.51,-440.93 345,-430.93 341.51,-440.93 348.51,-440.93"/>
<text text-anchor="middle" x="358.5" y="-487.72" font-family="Times New Roman,serif" font-size="14.00">8060</text>
</g>
<!-- spark -->
<g id="node10" class="node">
<title>spark</title>
<polygon fill="none" stroke="black" points="1255.38,-429.01 1082.63,-429.01 1082.63,-425.01 1078.63,-425.01 1078.63,-421.01 1082.63,-421.01 1082.63,-396.01 1078.63,-396.01 1078.63,-392.01 1082.63,-392.01 1082.63,-388.01 1255.38,-388.01 1255.38,-429.01"/>
<polyline fill="none" stroke="black" points="1082.63,-425.01 1086.63,-425.01 1086.63,-421.01 1082.63,-421.01"/>
<polyline fill="none" stroke="black" points="1082.63,-396.01 1086.63,-396.01 1086.63,-392.01 1082.63,-392.01"/>
<text text-anchor="middle" x="1169" y="-411.71" font-family="Times New Roman,serif" font-size="14.00">spark</text>
<text text-anchor="middle" x="1169" y="-395.21" font-family="Times New Roman,serif" font-size="14.00">(build from &#39;./spark&#45;iceberg&#39;)</text>
</g>
<!-- ./src -->
<g id="node11" class="node">
<title>./src</title>
<path fill="none" stroke="black" d="M1035,-254.73C1035,-256.54 1022.9,-258 1008,-258 993.11,-258 981,-256.54 981,-254.73 981,-254.73 981,-225.28 981,-225.28 981,-223.47 993.11,-222 1008,-222 1022.9,-222 1035,-223.47 1035,-225.28 1035,-225.28 1035,-254.73 1035,-254.73"/>
<path fill="none" stroke="black" d="M1035,-254.73C1035,-252.93 1022.9,-251.46 1008,-251.46 993.11,-251.46 981,-252.93 981,-254.73"/>
<text text-anchor="middle" x="1008" y="-234.95" font-family="Times New Roman,serif" font-size="14.00">./src</text>
</g>
<!-- spark&#45;&gt;./src -->
<g id="edge9" class="edge">
<title>spark&#45;&gt;./src</title>
<path fill="none" stroke="black" stroke-dasharray="5,2" d="M1133.18,-380.73C1106.74,-359.92 1070.84,-329.4 1044,-298.01 1036.21,-288.9 1028.9,-277.95 1022.92,-268.1"/>
<polygon fill="black" stroke="black" points="1130.87,-383.37 1140.91,-386.74 1135.17,-377.84 1130.87,-383.37"/>
<polygon fill="black" stroke="black" points="1026.05,-266.52 1017.97,-259.65 1020.01,-270.05 1026.05,-266.52"/>
<text text-anchor="middle" x="1085.18" y="-319.21" font-family="Times New Roman,serif" font-size="14.00">/src</text>
</g>
<!-- ./spark&#45;iceberg/conf/spark&#45;defaults.conf -->
<g id="node12" class="node">
<title>./spark&#45;iceberg/conf/spark&#45;defaults.conf</title>
<path fill="none" stroke="black" d="M1285.38,-254.73C1285.38,-256.54 1233.22,-258 1169,-258 1104.79,-258 1052.63,-256.54 1052.63,-254.73 1052.63,-254.73 1052.63,-225.28 1052.63,-225.28 1052.63,-223.47 1104.79,-222 1169,-222 1233.22,-222 1285.38,-223.47 1285.38,-225.28 1285.38,-225.28 1285.38,-254.73 1285.38,-254.73"/>
<path fill="none" stroke="black" d="M1285.38,-254.73C1285.38,-252.93 1233.22,-251.46 1169,-251.46 1104.79,-251.46 1052.63,-252.93 1052.63,-254.73"/>
<text text-anchor="middle" x="1169" y="-234.95" font-family="Times New Roman,serif" font-size="14.00">./spark&#45;iceberg/conf/spark&#45;defaults.conf</text>
</g>
<!-- spark&#45;&gt;./spark&#45;iceberg/conf/spark&#45;defaults.conf -->
<g id="edge10" class="edge">
<title>spark&#45;&gt;./spark&#45;iceberg/conf/spark&#45;defaults.conf</title>
<path fill="none" stroke="black" stroke-dasharray="5,2" d="M1169,-376.34C1169,-345.65 1169,-299.18 1169,-269.46"/>
<polygon fill="black" stroke="black" points="1165.51,-376.25 1169,-386.25 1172.51,-376.25 1165.51,-376.25"/>
<polygon fill="black" stroke="black" points="1172.51,-269.73 1169,-259.73 1165.51,-269.73 1172.51,-269.73"/>
<text text-anchor="middle" x="1263.88" y="-319.21" font-family="Times New Roman,serif" font-size="14.00">/opt/spark/conf/spark&#45;defaults.conf</text>
</g>
<!-- ./spark&#45;iceberg/conf/log4j2.properties -->
<g id="node13" class="node">
<title>./spark&#45;iceberg/conf/log4j2.properties</title>
<path fill="none" stroke="black" d="M1524.38,-254.73C1524.38,-256.54 1474.91,-258 1414,-258 1353.1,-258 1303.63,-256.54 1303.63,-254.73 1303.63,-254.73 1303.63,-225.28 1303.63,-225.28 1303.63,-223.47 1353.1,-222 1414,-222 1474.91,-222 1524.38,-223.47 1524.38,-225.28 1524.38,-225.28 1524.38,-254.73 1524.38,-254.73"/>
<path fill="none" stroke="black" d="M1524.38,-254.73C1524.38,-252.93 1474.91,-251.46 1414,-251.46 1353.1,-251.46 1303.63,-252.93 1303.63,-254.73"/>
<text text-anchor="middle" x="1414" y="-234.95" font-family="Times New Roman,serif" font-size="14.00">./spark&#45;iceberg/conf/log4j2.properties</text>
</g>
<!-- spark&#45;&gt;./spark&#45;iceberg/conf/log4j2.properties -->
<g id="edge11" class="edge">
<title>spark&#45;&gt;./spark&#45;iceberg/conf/log4j2.properties</title>
<path fill="none" stroke="black" stroke-dasharray="5,2" d="M1266.36,-384.51C1299.75,-373.03 1335.59,-356.35 1363,-332.51 1382.6,-315.47 1396.2,-288.98 1404.4,-268.87"/>
<polygon fill="black" stroke="black" points="1265.45,-381.12 1257.05,-387.58 1267.64,-387.77 1265.45,-381.12"/>
<polygon fill="black" stroke="black" points="1407.65,-270.18 1407.96,-259.59 1401.11,-267.67 1407.65,-270.18"/>
<text text-anchor="middle" x="1465.51" y="-319.21" font-family="Times New Roman,serif" font-size="14.00">/opt/spark/conf/log4j2.properties</text>
</g>
<!-- 0.0.0.08888 -->
<g id="node14" class="node">
<title>0.0.0.08888</title>
<ellipse fill="none" stroke="black" cx="697" cy="-581.63" rx="58" ry="58"/>
<text text-anchor="middle" x="697" y="-576.58" font-family="Times New Roman,serif" font-size="14.00">0.0.0.0:8888</text>
</g>
<!-- 0.0.0.08888&#45;&gt;spark -->
<g id="edge12" class="edge">
<title>0.0.0.08888&#45;&gt;spark</title>
<path fill="none" stroke="black" d="M736.37,-538.78C744.92,-531.39 754.32,-524.36 764,-519.02 861.07,-465.51 985.84,-436.93 1071.08,-422.54"/>
<polygon fill="black" stroke="black" points="1071.52,-426.01 1080.82,-420.93 1070.39,-419.11 1071.52,-426.01"/>
<text text-anchor="middle" x="849.82" y="-487.72" font-family="Times New Roman,serif" font-size="14.00">8888</text>
</g>
<!-- 0.0.0.07077 -->
<g id="node15" class="node">
<title>0.0.0.07077</title>
<ellipse fill="none" stroke="black" cx="831" cy="-581.63" rx="58" ry="58"/>
<text text-anchor="middle" x="831" y="-576.58" font-family="Times New Roman,serif" font-size="14.00">0.0.0.0:7077</text>
</g>
<!-- 0.0.0.07077&#45;&gt;spark -->
<g id="edge13" class="edge">
<title>0.0.0.07077&#45;&gt;spark</title>
<path fill="none" stroke="black" d="M871.27,-539.36C879.67,-532.01 888.79,-524.85 898,-519.02 958.35,-480.87 1034.21,-451.58 1090.31,-432.93"/>
<polygon fill="black" stroke="black" points="1091.05,-436.37 1099.46,-429.93 1088.87,-429.72 1091.05,-436.37"/>
<text text-anchor="middle" x="967.29" y="-487.72" font-family="Times New Roman,serif" font-size="14.00">7077</text>
</g>
<!-- 0.0.0.08061 -->
<g id="node16" class="node">
<title>0.0.0.08061</title>
<ellipse fill="none" stroke="black" cx="965" cy="-581.63" rx="58" ry="58"/>
<text text-anchor="middle" x="965" y="-576.58" font-family="Times New Roman,serif" font-size="14.00">0.0.0.0:8061</text>
</g>
<!-- 0.0.0.08061&#45;&gt;spark -->
<g id="edge14" class="edge">
<title>0.0.0.08061&#45;&gt;spark</title>
<path fill="none" stroke="black" d="M1007.14,-541.07C1015.3,-533.64 1023.85,-526.02 1032,-519.02 1065.96,-489.9 1106.05,-458.14 1134.06,-436.36"/>
<polygon fill="black" stroke="black" points="1136.12,-439.2 1141.88,-430.31 1131.83,-433.67 1136.12,-439.2"/>
<text text-anchor="middle" x="1086.24" y="-487.72" font-family="Times New Roman,serif" font-size="14.00">8061</text>
</g>
<!-- 0.0.0.08062 -->
<g id="node17" class="node">
<title>0.0.0.08062</title>
<ellipse fill="none" stroke="black" cx="1099" cy="-581.63" rx="58" ry="58"/>
<text text-anchor="middle" x="1099" y="-576.58" font-family="Times New Roman,serif" font-size="14.00">0.0.0.0:8062</text>
</g>
<!-- 0.0.0.08062&#45;&gt;spark -->
<g id="edge15" class="edge">
<title>0.0.0.08062&#45;&gt;spark</title>
<path fill="none" stroke="black" d="M1120.77,-527.43C1132.6,-498.5 1146.8,-463.79 1156.72,-439.54"/>
<polygon fill="black" stroke="black" points="1159.83,-441.18 1160.38,-430.6 1153.35,-438.53 1159.83,-441.18"/>
<text text-anchor="middle" x="1151.7" y="-487.72" font-family="Times New Roman,serif" font-size="14.00">8062</text>
</g>
<!-- 0.0.0.010000 -->
<g id="node18" class="node">
<title>0.0.0.010000</title>
<ellipse fill="none" stroke="black" cx="1238" cy="-581.63" rx="62.61" ry="62.61"/>
<text text-anchor="middle" x="1238" y="-576.58" font-family="Times New Roman,serif" font-size="14.00">0.0.0.0:10000</text>
</g>
<!-- 0.0.0.010000&#45;&gt;spark -->
<g id="edge16" class="edge">
<title>0.0.0.010000&#45;&gt;spark</title>
<path fill="none" stroke="black" d="M1214.84,-523.18C1203.6,-495.31 1190.56,-462.96 1181.27,-439.92"/>
<polygon fill="black" stroke="black" points="1184.58,-438.79 1177.6,-430.82 1178.09,-441.4 1184.58,-438.79"/>
<text text-anchor="middle" x="1222.45" y="-487.72" font-family="Times New Roman,serif" font-size="14.00">10000</text>
</g>
<!-- 0.0.0.010009 -->
<g id="node19" class="node">
<title>0.0.0.010009</title>
<ellipse fill="none" stroke="black" cx="1381" cy="-581.63" rx="62.61" ry="62.61"/>
<text text-anchor="middle" x="1381" y="-576.58" font-family="Times New Roman,serif" font-size="14.00">0.0.0.0:10009</text>
</g>
<!-- 0.0.0.010009&#45;&gt;spark -->
<g id="edge17" class="edge">
<title>0.0.0.010009&#45;&gt;spark</title>
<path fill="none" stroke="black" d="M1334.34,-539.5C1326.29,-532.59 1317.95,-525.54 1310,-519.02 1274.67,-490 1233.23,-458.06 1204.46,-436.2"/>
<polygon fill="black" stroke="black" points="1206.88,-433.64 1196.79,-430.39 1202.65,-439.22 1206.88,-433.64"/>
<text text-anchor="middle" x="1304.18" y="-487.72" font-family="Times New Roman,serif" font-size="14.00">10009</text>
</g>
<!-- 0.0.0.018080 -->
<g id="node20" class="node">
<title>0.0.0.018080</title>
<ellipse fill="none" stroke="black" cx="1524" cy="-581.63" rx="62.61" ry="62.61"/>
<text text-anchor="middle" x="1524" y="-576.58" font-family="Times New Roman,serif" font-size="14.00">0.0.0.0:18080</text>
</g>
<!-- 0.0.0.018080&#45;&gt;spark -->
<g id="edge18" class="edge">
<title>0.0.0.018080&#45;&gt;spark</title>
<path fill="none" stroke="black" d="M1479.2,-537.73C1470.87,-530.94 1461.96,-524.4 1453,-519.02 1389.27,-480.7 1309.77,-451.41 1251.11,-432.81"/>
<polygon fill="black" stroke="black" points="1252.44,-429.56 1241.86,-429.92 1250.35,-436.24 1252.44,-429.56"/>
<text text-anchor="middle" x="1433.76" y="-487.72" font-family="Times New Roman,serif" font-size="14.00">18080</text>
</g>
<!-- 0.0.0.09083 -->
<g id="node21" class="node">
<title>0.0.0.09083</title>
<ellipse fill="none" stroke="black" cx="1663" cy="-581.63" rx="58" ry="58"/>
<text text-anchor="middle" x="1663" y="-576.58" font-family="Times New Roman,serif" font-size="14.00">0.0.0.0:9083</text>
</g>
<!-- 0.0.0.09083&#45;&gt;spark -->
<g id="edge19" class="edge">
<title>0.0.0.09083&#45;&gt;spark</title>
<path fill="none" stroke="black" d="M1623.69,-538.68C1615.14,-531.29 1605.73,-524.3 1596,-519.02 1491.67,-462.39 1357,-434.18 1267.07,-420.75"/>
<polygon fill="black" stroke="black" points="1267.68,-417.3 1257.28,-419.32 1266.67,-424.22 1267.68,-417.3"/>
<text text-anchor="middle" x="1566.77" y="-487.72" font-family="Times New Roman,serif" font-size="14.00">9083</text>
</g>
<!-- kafka -->
<g id="node22" class="node">
<title>kafka</title>
<polygon fill="none" stroke="black" points="1930.5,-429.01 1797.5,-429.01 1797.5,-425.01 1793.5,-425.01 1793.5,-421.01 1797.5,-421.01 1797.5,-396.01 1793.5,-396.01 1793.5,-392.01 1797.5,-392.01 1797.5,-388.01 1930.5,-388.01 1930.5,-429.01"/>
<polyline fill="none" stroke="black" points="1797.5,-425.01 1801.5,-425.01 1801.5,-421.01 1797.5,-421.01"/>
<polyline fill="none" stroke="black" points="1797.5,-396.01 1801.5,-396.01 1801.5,-392.01 1797.5,-392.01"/>
<text text-anchor="middle" x="1864" y="-411.71" font-family="Times New Roman,serif" font-size="14.00">kafka</text>
<text text-anchor="middle" x="1864" y="-395.21" font-family="Times New Roman,serif" font-size="14.00">(bitnami/kafka:latest)</text>
</g>
<!-- 0.0.0.09092 -->
<g id="node23" class="node">
<title>0.0.0.09092</title>
<ellipse fill="none" stroke="black" cx="1797" cy="-581.63" rx="58" ry="58"/>
<text text-anchor="middle" x="1797" y="-576.58" font-family="Times New Roman,serif" font-size="14.00">0.0.0.0:9092</text>
</g>
<!-- 0.0.0.09092&#45;&gt;kafka -->
<g id="edge20" class="edge">
<title>0.0.0.09092&#45;&gt;kafka</title>
<path fill="none" stroke="black" d="M1817.84,-527.43C1829.11,-498.63 1842.63,-464.1 1852.12,-439.87"/>
<polygon fill="black" stroke="black" points="1855.36,-441.2 1855.74,-430.61 1848.84,-438.65 1855.36,-441.2"/>
<text text-anchor="middle" x="1848.02" y="-487.72" font-family="Times New Roman,serif" font-size="14.00">9092</text>
</g>
<!-- 0.0.0.09093 -->
<g id="node24" class="node">
<title>0.0.0.09093</title>
<ellipse fill="none" stroke="black" cx="1931" cy="-581.63" rx="58" ry="58"/>
<text text-anchor="middle" x="1931" y="-576.58" font-family="Times New Roman,serif" font-size="14.00">0.0.0.0:9093</text>
</g>
<!-- 0.0.0.09093&#45;&gt;kafka -->
<g id="edge21" class="edge">
<title>0.0.0.09093&#45;&gt;kafka</title>
<path fill="none" stroke="black" d="M1910.17,-527.43C1898.9,-498.63 1885.38,-464.1 1875.89,-439.87"/>
<polygon fill="black" stroke="black" points="1879.17,-438.65 1872.26,-430.61 1872.65,-441.2 1879.17,-438.65"/>
<text text-anchor="middle" x="1913.01" y="-487.72" font-family="Times New Roman,serif" font-size="14.00">9093</text>
</g>
<!-- 0.0.0.09000 -->
<g id="node26" class="node">
<title>0.0.0.09000</title>
<ellipse fill="none" stroke="black" cx="643" cy="-240" rx="58" ry="58"/>
<text text-anchor="middle" x="643" y="-234.95" font-family="Times New Roman,serif" font-size="14.00">0.0.0.0:9000</text>
</g>
<!-- 0.0.0.09000&#45;&gt;minio -->
<g id="edge23" class="edge">
<title>0.0.0.09000&#45;&gt;minio</title>
<path fill="none" stroke="black" d="M666.83,-186.91C674.1,-171.01 681.85,-154.08 688.21,-140.16"/>
<polygon fill="black" stroke="black" points="691.38,-141.64 692.36,-131.09 685.02,-138.73 691.38,-141.64"/>
<text text-anchor="middle" x="698.07" y="-150.7" font-family="Times New Roman,serif" font-size="14.00">9000</text>
</g>
<!-- 0.0.0.09001 -->
<g id="node27" class="node">
<title>0.0.0.09001</title>
<ellipse fill="none" stroke="black" cx="777" cy="-240" rx="58" ry="58"/>
<text text-anchor="middle" x="777" y="-234.95" font-family="Times New Roman,serif" font-size="14.00">0.0.0.0:9001</text>
</g>
<!-- 0.0.0.09001&#45;&gt;minio -->
<g id="edge24" class="edge">
<title>0.0.0.09001&#45;&gt;minio</title>
<path fill="none" stroke="black" d="M748.22,-189.5C738.42,-172.64 727.78,-154.34 719.18,-139.54"/>
<polygon fill="black" stroke="black" points="722.4,-138.12 714.35,-131.24 716.35,-141.64 722.4,-138.12"/>
<text text-anchor="middle" x="746.29" y="-150.7" font-family="Times New Roman,serif" font-size="14.00">9001</text>
</g>
<!-- mc -->
<g id="node28" class="node">
<title>mc</title>
<polygon fill="none" stroke="black" points="963.25,-260.5 852.75,-260.5 852.75,-256.5 848.75,-256.5 848.75,-252.5 852.75,-252.5 852.75,-227.5 848.75,-227.5 848.75,-223.5 852.75,-223.5 852.75,-219.5 963.25,-219.5 963.25,-260.5"/>
<polyline fill="none" stroke="black" points="852.75,-256.5 856.75,-256.5 856.75,-252.5 852.75,-252.5"/>
<polyline fill="none" stroke="black" points="852.75,-227.5 856.75,-227.5 856.75,-223.5 852.75,-223.5"/>
<text text-anchor="middle" x="908" y="-243.2" font-family="Times New Roman,serif" font-size="14.00">mc</text>
<text text-anchor="middle" x="908" y="-226.7" font-family="Times New Roman,serif" font-size="14.00">(minio/mc:latest)</text>
</g>
<!-- mc&#45;&gt;minio -->
<g id="edge26" class="edge">
<title>mc&#45;&gt;minio</title>
<path fill="none" stroke="black" stroke-dasharray="1,5" d="M888.37,-219.09C876.24,-207.43 859.99,-192.9 844,-182 817.49,-163.92 785.83,-147.43 759.13,-134.81"/>
<polygon fill="black" stroke="black" points="760.7,-131.68 750.16,-130.63 757.75,-138.03 760.7,-131.68"/>
</g>
<!-- ./minio/init_minio.sh -->
<g id="node29" class="node">
<title>./minio/init_minio.sh</title>
<path fill="none" stroke="black" d="M974.13,-123.73C974.13,-125.53 944.49,-127 908,-127 871.52,-127 841.88,-125.53 841.88,-123.73 841.88,-123.73 841.88,-94.27 841.88,-94.27 841.88,-92.47 871.52,-91 908,-91 944.49,-91 974.13,-92.47 974.13,-94.27 974.13,-94.27 974.13,-123.73 974.13,-123.73"/>
<path fill="none" stroke="black" d="M974.13,-123.73C974.13,-121.92 944.49,-120.45 908,-120.45 871.52,-120.45 841.88,-121.92 841.88,-123.73"/>
<text text-anchor="middle" x="908" y="-103.95" font-family="Times New Roman,serif" font-size="14.00">./minio/init_minio.sh</text>
</g>
<!-- mc&#45;&gt;./minio/init_minio.sh -->
<g id="edge25" class="edge">
<title>mc&#45;&gt;./minio/init_minio.sh</title>
<path fill="none" stroke="black" stroke-dasharray="5,2" d="M908,-207.91C908,-186.84 908,-159.21 908,-138.67"/>
<polygon fill="black" stroke="black" points="904.51,-207.62 908,-217.62 911.51,-207.62 904.51,-207.62"/>
<polygon fill="black" stroke="black" points="911.51,-138.73 908,-128.73 904.51,-138.73 911.51,-138.73"/>
<text text-anchor="middle" x="946.25" y="-150.7" font-family="Times New Roman,serif" font-size="14.00">/init_minio.sh</text>
</g>
<!-- metabase -->
<g id="node30" class="node">
<title>metabase</title>
<polygon fill="none" stroke="black" points="284.13,-260.5 133.88,-260.5 133.88,-256.5 129.88,-256.5 129.88,-252.5 133.88,-252.5 133.88,-227.5 129.88,-227.5 129.88,-223.5 133.88,-223.5 133.88,-219.5 284.13,-219.5 284.13,-260.5"/>
<polyline fill="none" stroke="black" points="133.88,-256.5 137.88,-256.5 137.88,-252.5 133.88,-252.5"/>
<polyline fill="none" stroke="black" points="133.88,-227.5 137.88,-227.5 137.88,-223.5 133.88,-223.5"/>
<text text-anchor="middle" x="209" y="-243.2" font-family="Times New Roman,serif" font-size="14.00">metabase</text>
<text text-anchor="middle" x="209" y="-226.7" font-family="Times New Roman,serif" font-size="14.00">(build from &#39;./metabase&#39;)</text>
</g>
<!-- metabase&#45;&gt;postgres -->
<g id="edge28" class="edge">
<title>metabase&#45;&gt;postgres</title>
<path fill="none" stroke="black" stroke-dasharray="1,5" d="M209,-219.13C209,-198.33 209,-165.39 209,-141.13"/>
<polygon fill="black" stroke="black" points="212.51,-141.2 209,-131.2 205.51,-141.2 212.51,-141.2"/>
</g>
<!-- 0.0.0.03030 -->
<g id="node31" class="node">
<title>0.0.0.03030</title>
<ellipse fill="none" stroke="black" cx="206" cy="-408.51" rx="58" ry="58"/>
<text text-anchor="middle" x="206" y="-403.46" font-family="Times New Roman,serif" font-size="14.00">0.0.0.0:3030</text>
</g>
<!-- 0.0.0.03030&#45;&gt;metabase -->
<g id="edge27" class="edge">
<title>0.0.0.03030&#45;&gt;metabase</title>
<path fill="none" stroke="black" d="M207.04,-350.21C207.51,-324.02 208.05,-294.02 208.44,-272.1"/>
<polygon fill="black" stroke="black" points="211.94,-272.4 208.62,-262.34 204.94,-272.27 211.94,-272.4"/>
<text text-anchor="middle" x="221.09" y="-319.21" font-family="Times New Roman,serif" font-size="14.00">3030</text>
</g>
</g>
</svg>
